inDegrees=no
num_controls=7
num_derivatives=13
num_iterations=85
num_multipliers=7
num_parameters=0
num_slacks=7
num_states=26
objective=0.454556
objective_accelerations=0.044692
objective_balance=0.000797
objective_effort=0.036478
objective_height=0.366500
objective_ligament=0.006089
solver_duration=976.651405
status=Solve_Succeeded
success=true
DataType=double
version=3
OpenSimVersion=4.5
endheader
time	/jointset/ground_pelvis/pelvis_tilt/value	/jointset/ground_pelvis/pelvis_tx/value	/jointset/ground_pelvis/pelvis_ty/value	/jointset/hip_r/hip_flexion_r/value	/jointset/hip_r/hip_adduction_r/value	/jointset/hip_r/hip_rotation_r/value	/jointset/back/lumbar_extension/value	/jointset/patellofemoral_r/patellar_flexion_r/value	/jointset/knee_r/knee_flexion_r/value	/jointset/knee_r/knee_adduction_r/value	/jointset/knee_r/knee_rotation_r/value	/jointset/ankle_r/ankle_angle_r/value	/jointset/subtalar_r/subtalar_angle_r/value	/jointset/ground_pelvis/pelvis_tilt/speed	/jointset/ground_pelvis/pelvis_tx/speed	/jointset/ground_pelvis/pelvis_ty/speed	/jointset/hip_r/hip_flexion_r/speed	/jointset/hip_r/hip_adduction_r/speed	/jointset/hip_r/hip_rotation_r/speed	/jointset/back/lumbar_extension/speed	/jointset/patellofemoral_r/patellar_flexion_r/speed	/jointset/knee_r/knee_flexion_r/speed	/jointset/knee_r/knee_adduction_r/speed	/jointset/knee_r/knee_rotation_r/speed	/jointset/ankle_r/ankle_angle_r/speed	/jointset/subtalar_r/subtalar_angle_r/speed	/forceset/tau_hip_flexion_r	/forceset/tau_hip_adduction_r	/forceset/tau_hip_rotation_r	/forceset/tau_knee_flexion_r	/forceset/tau_ankle_angle_r	/forceset/tau_subtalar_angle_r	/forceset/tau_lumbar_extension	lambda_cid13_p0	lambda_cid14_p0	lambda_cid14_p1	lambda_cid14_p2	lambda_cid14_p3	lambda_cid14_p4	lambda_cid14_p5	/jointset/ground_pelvis/pelvis_tilt/accel	/jointset/ground_pelvis/pelvis_tx/accel	/jointset/ground_pelvis/pelvis_ty/accel	/jointset/hip_r/hip_flexion_r/accel	/jointset/hip_r/hip_adduction_r/accel	/jointset/hip_r/hip_rotation_r/accel	/jointset/back/lumbar_extension/accel	/jointset/patellofemoral_r/patellar_flexion_r/accel	/jointset/knee_r/knee_flexion_r/accel	/jointset/knee_r/knee_adduction_r/accel	/jointset/knee_r/knee_rotation_r/accel	/jointset/ankle_r/ankle_angle_r/accel	/jointset/subtalar_r/subtalar_angle_r/accel	gamma_cid13_p0	gamma_cid14_p0	gamma_cid14_p1	gamma_cid14_p2	gamma_cid14_p3	gamma_cid14_p4	gamma_cid14_p5
0.5	-0.1269329872868784	0.03353936162032532	0.8138923910954029	0.8519375717880836	-0.2522561893840884	-0.05503365289260503	-0.6441739815368082	0.9387842811338833	0.9387842811338752	0.06469296103382063	0.174352730270908	0.28854326328781	0.09013748255204855	-0.3279553260810026	-0.1918640038593172	-0.4647600738164597	1.759531413187109	-0.04102332812090883	0.5087874965929815	-0.7339221829805337	1.881213804806756	1.881213804806754	-0.07493890317799412	-0.00235951059287174	0.5258812392919131	0.1063566464446687	-0.1893534661027645	0.003789939327144014	0.0355864386048401	-0.2912027513639215	-0.0007148078005963928	-0.01433859451842892	0.2354240611215452	-8.79465817754026	-43.53391328723394	-12.48857460379075	0.8581934123845378	-3.761698415940494	-644.2482042518786	58.3783562800868	0.2529242290580708	0.5445868800426398	-0.3583203950410931	-1.210548491829248	0.2638873819798297	-0.2515687988699579	1.728056130157356	-1.407168789887177	-1.407168789887175	0.2967008402615166	-0.003956893014754563	-0.4627098554218427	0.3148635014927249	-4.649681209867393e-08	4.188231460609376e-08	1.334822289029512e-06	1.074267340283841e-07	-1.609903237593238e-07	-1.136543984676179e-07	8.642222947173191e-07
0.51	-0.1301992319797118	0.03164809299026699	0.809227929099519	0.8694696708417275	-0.2526535684073046	-0.0499606526459537	-0.6514262256757886	0.9575232442632072	0.9575232442632103	0.06395770985975709	0.1743306339780981	0.2937779177247985	0.09121608083105773	-0.325245593739773	-0.1863764873384807	-0.4680295947360205	1.746655274840099	-0.03844805086950332	0.5057360913916624	-0.7164457186589235	1.866322987909401	1.866322987909407	-0.07215367178586156	-0.002060568334511961	0.5209715401391032	0.1093546353667784	-0.1953495858018319	0.004941262732973793	0.03629493527629078	-0.2958523449604487	-0.001920648387023713	-0.01420018295592723	0.2410417202804955	-7.840111783246679	-44.20935083693981	-12.6953571419266	1.060931971170129	-3.625284968997521	-648.7566493446391	58.49808361490683	0.2872080266657131	0.5527833330732587	-0.2958812628564025	-1.36110690936098	0.255127859605277	-0.34349463807512	1.769580506606219	-1.568404204327815	-1.568404204326646	0.2632850120820889	0.0467698279446949	-0.5168549735012534	0.2912599745149392	-4.232403281676558e-08	5.03117557821316e-08	1.433404348269015e-06	1.767303792345397e-07	-1.77648938744372e-07	-1.096000822815444e-07	9.439445281185225e-07
0.52	-0.1334369372911287	0.02981208938441079	0.8045338492299512	0.8868660164312574	-0.2530250386654299	-0.0449204801027699	-0.6585012773868644	0.9761056260106341	0.9761056260106359	0.06324908114435748	0.1743115171163865	0.2989611241645985	0.09232445767667734	-0.3222474497981413	-0.1808109990188905	-0.4706836485533131	1.732380720364117	-0.03584157510273934	0.5022219558978614	-0.6984836973995808	1.849897528425319	1.849897528425333	-0.0696144114580169	-0.001763624368818049	0.5155916398546666	0.1123123597666839	-0.2013457055009018	0.006092586138846113	0.03700343194752675	-0.3005019385569792	-0.003126488973435584	-0.01406177139335098	0.2466593794394382	-6.943654672306919	-44.88416280082109	-12.89716551607498	1.257320867768686	-3.512952121775715	-653.2558168006055	58.64772452549024	0.3106065491384298	0.5601812397934255	-0.235226974587441	-1.490231717623603	0.2701270850514942	-0.3441148573663467	1.82516751770385	-1.714097307232551	-1.714097307232554	0.2475066274039306	-0.004356551547918929	-0.5567500817471417	0.3068105970518856	-3.784895445048492e-08	4.832397759901427e-08	1.375414629213557e-06	1.907172440608952e-07	-1.736344056023787e-07	-9.953766531862424e-08	9.249809784224919e-07
0.53	-0.1366432535030241	0.02803208402428492	0.7998163198803643	0.904112755062904	-0.2533704327168147	-0.03991712401606262	-0.6653943645594284	0.9945162893709238	0.9945162893709195	0.06256523052823061	0.1742951030724348	0.3040882421325409	0.09346198116981691	-0.3189669627352014	-0.1751810210981631	-0.4727173189773148	1.716738620720862	-0.03324867671037038	0.498430573271918	-0.6800651541825392	1.831996148515471	1.831996148515484	-0.06712945970786213	-0.001533199195124986	0.509758354286338	0.1151585102971219	-0.2072383554966283	0.007121608988133056	0.0376727930399873	-0.3052420161240548	-0.004351441043538972	-0.01394373912556559	0.2521607806520693	-6.106057464764136	-45.5718982240556	-13.1075202122184	1.452139759364832	-3.349822423832449	-657.7972581479283	58.80414624558451	0.344100364914373	0.5657295493403017	-0.1717205687601497	-1.635450032253963	0.2522613198000881	-0.3995395765953055	1.860485163258149	-1.864000500842677	-1.864000500842701	0.2531085904283203	0.03471923230804122	-0.6076947035148782	0.2686775528655306	-3.401317583669833e-08	4.699681106312828e-08	1.319169223851665e-06	2.005124775777104e-07	-1.697703912255818e-07	-8.897496612647996e-08	9.022275014056187e-07
0.54	-0.1398152987282796	0.02630864313959185	0.7950815971280469	0.9211962225092031	-0.2536902197635822	-0.0349522596778846	-0.6721012088119112	1.012740770498524	1.012740770498507	0.06190705325797	0.1742805887163031	0.3091548118629703	0.09462699822262624	-0.3153932524705667	-0.1694981039323299	-0.4741223290994745	1.6997264832945	-0.03072017417919473	0.4945236061905025	-0.6612351133833467	1.812661081886356	1.81266108188637	-0.06447974229342898	-0.001383686802227626	0.5034819923524442	0.1178110717005923	-0.2131310054923589	0.008150631837454835	0.03834215413230032	-0.3099820936911336	-0.005576393113629795	-0.01382570685771876	0.2576621818646925	-5.32752036660195	-46.25949458682832	-13.31298088046385	1.640616435478603	-3.211395985273316	-662.3373513012447	58.98997665543779	0.3692511894773173	0.5707690888145962	-0.109494914219013	-1.764239274245237	0.2572479128128082	-0.3672317484607642	1.907467034134016	-2.000834651085683	-2.0008346510857	0.2804597602596008	-0.02053910770705098	-0.6453653548601266	0.2680927716583689	-3.088470758737329e-08	4.640053400928548e-08	1.264853697469888e-06	2.056701615605659e-07	-1.660729082485766e-07	-7.78587631913643e-08	8.752809133103662e-07
0.55	-0.1429502341564426	0.02464223620134672	0.7903359724379323	0.9381029395536142	-0.2539849522319393	-0.03002752119032656	-0.6786177803983666	1.03076489070644	1.030764890706444	0.06127556217550981	0.1742672950748183	0.3141565002782619	0.09581772946812366	-0.3115497346299159	-0.1637797508702467	-0.4748962367036227	1.681401260589597	-0.02823122534507035	0.4903479610971827	-0.6420237927652472	1.791934616529967	1.791934616529979	-0.06185420699735508	-0.001268049655483433	0.4967897254977037	0.120313465275736	-0.2188500390516436	0.009150386066704048	0.03895480949105558	-0.3148122373879089	-0.006793316319823141	-0.01376904519301969	0.2629769331940571	-4.607785093298578	-46.95117981331055	-13.5483311917594	1.836737125233214	-3.011030306857336	-666.8655520582616	59.13733814125825	0.3985221551632601	0.5728655307057333	-0.04539720961009795	-1.899007217663975	0.2440798953286359	-0.4542284208529819	1.936276246979967	-2.142798117331163	-2.142798117331409	0.2484043654167768	0.02874505487120358	-0.691086584028444	0.2382744025964751	-2.72278971680627e-08	4.591657287410468e-08	1.209544235791325e-06	2.145257295355542e-07	-1.624847942469003e-07	-6.697925595776988e-08	8.498748971056702e-07
